<?xml version="1.0" encoding="UTF-8" standalone="no"?>
<!-- Created with Inkscape (http://www.inkscape.org/) -->

<svg
   xmlns:dc="http://purl.org/dc/elements/1.1/"
   xmlns:cc="http://creativecommons.org/ns#"
   xmlns:rdf="http://www.w3.org/1999/02/22-rdf-syntax-ns#"
   xmlns:svg="http://www.w3.org/2000/svg"
   xmlns="http://www.w3.org/2000/svg"
   xmlns:xlink="http://www.w3.org/1999/xlink"
   xmlns:sodipodi="http://sodipodi.sourceforge.net/DTD/sodipodi-0.dtd"
   xmlns:inkscape="http://www.inkscape.org/namespaces/inkscape"
   width="297.00009mm"
   height="210.00014mm"
   viewBox="0 0 1052.3625 744.09497"
   id="svg6444"
   version="1.1"
   inkscape:version="0.91 r13725"
   sodipodi:docname="00.svg">
  <defs
     id="defs6446">
    <clipPath
       clipPathUnits="userSpaceOnUse"
       id="clipPath7140">
      <rect
         style="color:#000000;clip-rule:nonzero;display:inline;overflow:visible;visibility:visible;opacity:0.44500002;isolation:auto;mix-blend-mode:normal;color-interpolation:sRGB;color-interpolation-filters:linearRGB;solid-color:#000000;solid-opacity:1;fill:#deaa87;fill-opacity:1;fill-rule:nonzero;stroke:none;stroke-width:1.176126;stroke-linecap:butt;stroke-linejoin:miter;stroke-miterlimit:4;stroke-dasharray:none;stroke-dashoffset:0;stroke-opacity:1;marker:none;color-rendering:auto;image-rendering:auto;shape-rendering:auto;text-rendering:auto;enable-background:accumulate"
         id="rect7142"
         width="1052.3625"
         height="744.09497"
         x="-268.89484"
         y="278.7641" />
    </clipPath>
  </defs>
  <sodipodi:namedview
     id="base"
     pagecolor="#ffffff"
     bordercolor="#666666"
     borderopacity="1.0"
     inkscape:pageopacity="0.0"
     inkscape:pageshadow="2"
     inkscape:zoom="0.41647687"
     inkscape:cx="606.18742"
     inkscape:cy="263.37272"
     inkscape:document-units="px"
     inkscape:current-layer="layer1"
     showgrid="false"
     fit-margin-top="0"
     fit-margin-left="0"
     fit-margin-right="0"
     fit-margin-bottom="0"
     inkscape:snap-bbox="true"
     inkscape:snap-page="true"
     inkscape:window-width="1920"
     inkscape:window-height="1014"
     inkscape:window-x="0"
     inkscape:window-y="27"
     inkscape:window-maximized="1"
     inkscape:bbox-nodes="true" />
  <metadata
     id="metadata6449">
    <rdf:RDF>
      <cc:Work
         rdf:about="">
        <dc:format>image/svg+xml</dc:format>
        <dc:type
           rdf:resource="http://purl.org/dc/dcmitype/StillImage" />
        <dc:title></dc:title>
      </cc:Work>
    </rdf:RDF>
  </metadata>
  <g
     inkscape:label="Capa 1"
     inkscape:groupmode="layer"
     id="layer1"
     transform="translate(268.89484,-278.7641)">
    <image
       sodipodi:absref="/home/creawww/DATOS/020_NOVATERRA/Novaterra/MemoriaAnual/2016/fondoPortada.png"
       xlink:href="fondoPortada.png"
       inkscape:export-ydpi="90"
       inkscape:export-xdpi="90"
       clip-path="url(#clipPath7140)"
       width="1064.623"
       height="796.47113"
       preserveAspectRatio="none"
       id="image7137"
       x="-279.85587"
       y="274.86563" />
    <g
       id="g4279"
       transform="matrix(0.55498132,0,0,0.55498132,262.87897,865.34068)"
       inkscape:export-xdpi="460"
       inkscape:export-ydpi="460">
      <path
         inkscape:export-ydpi="90"
         inkscape:export-xdpi="90"
         inkscape:export-filename="/home/creawww/KGESTION/070/diseños/jornadas para el compromiso/g184.png"
         d="m 219.82542,-61.841464 142.85383,0 0.2628,143.120452 -27.84225,-50.52583 -25.6127,0 0,84.440292 25.41588,0.22692 -0.4515,-50.320532 27.82012,50.093662 7.87854,14.39574 -151.2014,0.17799 0.88134,-191.609067 z"
         style="fill:#7b6eb0;fill-opacity:1;fill-rule:nonzero;stroke:none"
         id="path5441-1"
         inkscape:connector-curvature="0" />
      <path
         inkscape:export-ydpi="90"
         inkscape:export-xdpi="90"
         inkscape:export-filename="/home/creawww/KGESTION/070/diseños/jornadas para el compromiso/g184.png"
         d="m 365.66732,30.752138 22.22201,0 0.4515,84.888712 -22.14801,0.18405 7.20441,13.62306 33.70535,-0.0755 -0.53714,-190.620096 -40.17339,-0.03728 -0.72081,92.037919 z"
         style="fill:#8dc8ab;fill-opacity:1;fill-rule:nonzero;stroke:none"
         id="path5443-2"
         inkscape:connector-curvature="0" />
      <path
         d="m 714.21064,42.208688 0,-1.74544 -13.92872,0 0,1.49686 c 0,5.60379 -0.37928,10.5699 -6.37671,10.5699 -6.24322,0 -6.76689,-5.75509 -6.76689,-21.37212 0,-11.88303 0.30426,-19.38356 6.83641,-19.38356 5.53828,0 5.99761,4.43656 5.99761,8.92711 l 0,1.49145 13.77897,0 0,-1.9778 c 0,-14.5740999 -7.86159,-17.8920599 -19.94227,-17.8920599 -19.46151,0 -20.69529,11.9856799 -20.69529,30.5910999 0,21.33433 3.58891,29.06177 20.86098,29.06177 14.09408,0 20.23591,-5.19306 20.23591,-19.76721"
         style="fill:#7b6eb0;fill-opacity:1;fill-rule:nonzero;stroke:none"
         id="path5445-8"
         inkscape:connector-curvature="0" />
      <path
         inkscape:export-ydpi="90"
         inkscape:export-xdpi="90"
         inkscape:export-filename="/home/creawww/KGESTION/070/diseños/jornadas para el compromiso/g184.png"
         inkscape:connector-curvature="0"
         id="path5447-3"
         style="fill:#7b6eb0;fill-opacity:1;fill-rule:nonzero;stroke:none"
         d="m 719.75414,3.6642581 14.02522,0 0,56.9726099 -14.02522,0 0,-56.9726099 z" />
      <path
         d="m 773.17829,-11.945647 -12.24116,0 -6.53685,11.3588351 7.25805,0 11.51996,-11.3588351 z"
         style="fill:#7b6eb0;fill-opacity:1;fill-rule:nonzero;stroke:none"
         id="path5449-1"
         inkscape:connector-curvature="0" />
      <path
         d="m 573.20383,60.636348 0,-56.9725599 -11.37575,0 0,46.5053599 -10.89499,-46.5053599 -20.31582,0 0,56.9725599 11.43418,0 0,-46.40266 10.90576,46.40266 20.24662,0 z"
         style="fill:#7b6eb0;fill-opacity:1;fill-rule:nonzero;stroke:none"
         id="path5451-2"
         inkscape:connector-curvature="0" />
      <path
         d="m 475.93958,13.041568 0,-9.3756399 -31.6864,0 0,56.9726099 14.00863,0 0,-24.58743 17.06901,0 0,-8.97035 -17.06901,0 0,-14.03919 17.67777,0 z"
         style="fill:#7b6eb0;fill-opacity:1;fill-rule:nonzero;stroke:none"
         id="path5453-0"
         inkscape:connector-curvature="0" />
      <path
         d="m 792.65229,128.12635 14.938,-56.621292 16.91409,0 13.918,56.621292 -14.44685,0 -1.16426,-5.5497 -14.62811,0 -1.21752,5.5497 -14.31335,0 z m 18.6926,-19.51318 8.53986,0 -4.12847,-19.923962 -4.41139,19.923962 z m -47.2547,-12.644992 7.77101,0 c 2.04001,0 3.46608,-0.37835 4.30968,-1.16724 0.81736,-0.78894 1.239,-2.1291 1.239,-3.97178 0,-1.85894 -0.37928,-3.11806 -1.17466,-3.85836 -0.78516,-0.70791 -2.36067,-1.09157 -4.69986,-1.09157 l -7.44517,0 0,10.08895 z m 12.6791,-24.46312 c 2.99049,0 5.40475,0.25954 7.20442,0.71328 1.78923,0.47554 3.20976,1.22129 4.20871,2.20476 1.27077,1.26989 2.26967,2.9343 2.95316,5.04718 0.67306,2.10747 0.9989,4.53384 0.9989,7.28977 0,3.35039 -0.48598,6.29005 -1.50081,8.82987 -1.01479,2.52897 -2.398,4.35008 -4.1658,5.495702 1.5167,1.04293 2.58479,2.33444 3.18316,3.87994 0.61393,1.52387 0.98264,4.27985 1.08952,8.18681 0.0326,0.42681 0.0326,1.0105 0.0419,1.76706 0.22831,7.40323 0.82771,11.51013 1.82665,12.34776 l 0,0.85916 -14.82599,0 c -0.44312,-1.18881 -0.71565,-3.49087 -0.75297,-6.97093 -0.0419,-1.99942 -0.069,-3.55032 -0.16588,-4.66347 -0.12441,-2.04811 -0.56105,-3.50173 -1.25521,-4.35007 -0.70493,-0.84304 -1.88546,-1.26994 -3.55708,-1.26994 l -7.96293,0 0,17.25441 -13.5227,0 0,-56.621292 26.20175,0 z m -59.9282,24.46312 7.78135,0 c 2.05077,0 3.45537,-0.37835 4.29379,-1.16724 0.82808,-0.78894 1.24972,-2.1291 1.24972,-3.97178 0,-1.85894 -0.38441,-3.11806 -1.17466,-3.85836 -0.79066,-0.70791 -2.35545,-1.09157 -4.69468,-1.09157 l -7.45552,0 0,10.08895 z m 12.69462,-24.46312 c 2.99086,0 5.3944,0.25954 7.19407,0.71328 1.77852,0.47554 3.17761,1.22129 4.21388,2.20476 1.28186,1.26989 2.24861,2.9343 2.95349,5.04718 0.65685,2.10747 1.00412,4.53384 1.00412,7.28977 0,3.35039 -0.50742,6.29005 -1.51153,8.82987 -1.02551,2.52897 -2.41389,4.35008 -4.17651,5.495702 1.52741,1.04293 2.61176,2.33444 3.2153,3.87994 0.60876,1.52387 0.96121,4.27985 1.06809,8.18681 0,0.42681 0.0326,1.0105 0.0485,1.76706 0.22459,7.40323 0.82216,11.51013 1.81556,12.34776 l 0,0.85916 -14.8149,0 c -0.44871,-1.18881 -0.71043,-3.49087 -0.75852,-6.97093 -0.0326,-1.99942 -0.0797,-3.55032 -0.17659,-4.66347 -0.11742,-2.04811 -0.56105,-3.50173 -1.25521,-4.35007 -0.69971,-0.84304 -1.87469,-1.26994 -3.54637,-1.26994 l -7.9681,0 0,17.25441 -13.52824,0 0,-56.621292 26.22286,0 z m -68.10454,56.621292 0,-56.621292 36.48765,0 0,13.91484 -23.13582,0 0,6.71699 18.72998,0 0,13.995912 -18.72998,0 0,7.42485 24.27343,0 0,14.5687 -37.62526,0 z m -29.69965,0 0,-42.247122 -12.44939,0 0,-14.37417 38.29832,0 0,14.37417 -12.50782,0 0,42.247122 -13.34111,0 z m -55.01455,0 14.91661,-56.621292 16.90332,0 13.93394,56.621292 -14.4469,0 -1.13761,-5.5497 -14.65476,0 -1.22302,5.5497 -14.29158,0 z m 18.67083,-19.51318 8.55058,0 -4.16584,-19.923962 -4.38474,19.923962 z m -43.23827,19.51318 -15.21575,-56.621292 15.05561,0 7.30059,37.897052 7.68555,-37.897052 14.90031,0 -15.81897,56.621292 -13.90734,0 z M 491.7942,99.853568 c 0,-9.84042 1.93349,-17.2923 5.84269,-22.28543 3.88809,-5.01474 9.67197,-7.52214 17.30389,-7.52214 7.67479,0 13.42648,2.5074 17.33083,7.52214 3.88772,4.99313 5.85341,12.44501 5.85341,22.28543 0,9.829552 -1.96569,17.254412 -5.85341,22.247542 -3.90435,5.00934 -9.65604,7.51674 -17.33083,7.51674 -7.63192,0 -13.4158,-2.5074 -17.30389,-7.51674 -3.9092,-4.99313 -5.84269,-12.41799 -5.84269,-22.247542 m 14.3504,0 c 0,4.906642 0.73186,8.678532 2.2645,11.288572 1.50599,2.59383 3.67431,3.90696 6.53168,3.90696 2.8625,0 5.03642,-1.31313 6.56384,-3.90696 1.51148,-2.61004 2.26445,-6.38193 2.26445,-11.288572 0,-4.94994 -0.75297,-8.73263 -2.26445,-11.35889 -1.52742,-2.63707 -3.70134,-3.96101 -6.56384,-3.96101 -2.85737,0 -5.02569,1.32394 -6.53168,3.96101 -1.53264,2.62626 -2.2645,6.40895 -2.2645,11.35889 m -61.87726,28.272782 0,-56.621292 15.77648,0 13.28227,32.628322 0,-32.628322 12.91911,0 0,56.621292 -14.95394,0 -14.45207,-33.152452 0,33.152452 -12.57185,0 z"
         style="fill:#7b6eb0;fill-opacity:1;fill-rule:nonzero;stroke:none"
         id="path5455-2"
         inkscape:connector-curvature="0" />
      <path
         d="m 522.43502,41.575418 0,-37.9132599 -13.68834,0 0,37.7403499 c 0,6.23063 -0.88651,11.12652 -7.18331,11.12652 -6.08307,0 -7.09235,-4.81481 -7.09235,-11.28322 l 0,-37.5836499 -13.94983,0 0,37.7403499 c 0,14.19049 6.24838,20.57241 20.95673,20.57241 14.01417,0 20.9571,-5.339 20.9571,-20.3995"
         style="fill:#7b6eb0;fill-opacity:1;fill-rule:nonzero;stroke:none"
         id="path5457-6"
         inkscape:connector-curvature="0" />
      <path
         d="m 522.43502,41.575418 0,-37.9132599 -13.68834,0 0,37.7403499 c 0,6.23063 -0.88651,11.12652 -7.18331,11.12652 -6.08307,0 -7.09235,-4.81481 -7.09235,-11.28322 l 0,-37.5836499 -13.94983,0 0,37.7403499 c 0,14.19049 6.24838,20.57241 20.95673,20.57241 14.01417,0 20.9571,-5.339 20.9571,-20.3995"
         style="fill:#7b6eb0;fill-opacity:1;fill-rule:nonzero;stroke:none"
         id="path5459-2"
         inkscape:connector-curvature="0" />
      <path
         d="m 608.79009,31.796698 c 0,11.65607 -0.3215,19.39436 -9.25551,19.39436 l -3.98421,0 0,-38.0646 3.8988,0 c 8.40633,0 9.34092,5.36057 9.34092,18.67024 m 14.08337,-1.19427 c 0,-19.37815 -2.17872,-26.9381299 -22.874,-26.9381299 l -18.37747,0 0,56.9726099 18.29201,0 c 21.80592,0 22.95946,-9.14326 22.95946,-30.03448"
         style="fill:#7b6eb0;fill-opacity:1;fill-rule:nonzero;stroke:none"
         id="path5461-7"
         inkscape:connector-curvature="0" />
      <path
         d="m 787.80747,60.588688 0,-56.6212899 15.78165,0 13.27709,32.6229099 0,-32.6229099 12.91911,0 0,56.6212899 -14.94323,0 -14.46278,-33.15246 0,33.15246 -12.57184,0 z"
         style="fill:#7b6eb0;fill-opacity:1;fill-rule:nonzero;stroke:none"
         id="path5463-1"
         inkscape:connector-curvature="0" />
      <path
         d="m 624.11791,60.298588 15.0394,-56.9887799 17.02614,0 14.00896,56.9887799 -14.53231,0 -1.16943,-5.59294 -14.71906,0 -1.26043,5.59294 -14.39327,0 z m 18.80988,-19.62669 8.5935,0 -4.16067,-20.05903 -4.43283,20.05903 z"
         style="fill:#7b6eb0;fill-opacity:1;fill-rule:nonzero;stroke:none"
         id="path5465-7"
         inkscape:connector-curvature="0" />
      <path
         d="m 738.10777,32.166288 c 0,-9.84578 1.94938,-17.29225 5.83747,-22.2907799 3.90397,-5.02016 9.68269,-7.52755 17.33087,-7.52755 7.65857,0 13.42652,2.50739 17.30907,7.52755 3.89326,4.9985299 5.83747,12.4449999 5.83747,22.2907799 0,9.81334 -1.94421,17.249 -5.83747,22.23677 -3.88255,5.04178 -9.6505,7.52755 -17.30907,7.52755 -7.64818,0 -13.4269,-2.48577 -17.33087,-7.52755 -3.88809,-4.98777 -5.83747,-12.42343 -5.83747,-22.23677 m 14.34518,0 c 0,4.89588 0.76373,8.67312 2.25933,11.28862 1.53813,2.58302 3.70646,3.89615 6.56383,3.89615 2.857,0 5.04681,-1.31313 6.54203,-3.89615 1.52779,-2.6155 2.27004,-6.39274 2.27004,-11.28862 0,-4.9607 -0.74225,-8.73799 -2.27004,-11.36965 -1.49522,-2.63707 -3.68503,-3.9502 -6.54203,-3.9502 -2.85737,0 -5.0257,1.31313 -6.56383,3.9502 -1.4956,2.63166 -2.25933,6.40895 -2.25933,11.36965"
         style="fill:#7b6eb0;fill-opacity:1;fill-rule:nonzero;stroke:none"
         id="path5467-1"
         inkscape:connector-curvature="0" />
      <path
         inkscape:export-ydpi="90"
         inkscape:export-xdpi="90"
         inkscape:export-filename="/home/creawww/KGESTION/070/diseños/jornadas para el compromiso/g184.png"
         d="m 242.68969,199.67428 -7.60597,-30.56408 0,33.12007 c 0,1.83737 -0.39792,3.2045 -1.21715,4.12307 -0.80142,0.9187 -1.87403,1.37258 -3.20426,1.37258 -1.29776,0 -2.35028,-0.44358 -3.17799,-1.34011 -0.81144,-0.9187 -1.22306,-2.30205 -1.22306,-4.15554 l 0,-37.96722 c 0,-2.09671 0.53197,-3.49637 1.61287,-4.21504 1.08435,-0.7512 2.54188,-1.11324 4.36331,-1.1186 l 2.98015,0 c 1.78923,0 3.08181,0.16169 3.88324,0.49171 0.81662,0.32989 1.4202,0.91871 1.81071,1.76715 0.38161,0.84844 0.82217,2.24256 1.32404,4.15555 l 6.88482,26.27881 6.88342,-26.27881 c 0.51054,-1.91299 0.93977,-3.30711 1.32958,-4.15555 0.3872,-0.84844 0.9885,-1.43739 1.79515,-1.76715 0.80623,-0.32989 2.1147,-0.49171 3.90398,-0.49171 l 2.96938,0 c 1.83737,0 3.29489,0.36763 4.37407,1.1186 1.07881,0.71867 1.60766,2.11833 1.62359,4.21504 l 0,37.96722 c 0,1.83737 -0.41376,3.2045 -1.23932,4.12307 -0.80073,0.9187 -1.86914,1.37258 -3.24164,1.37258 -1.26593,0 -2.31253,-0.4543 -3.12435,-1.37258 -0.82771,-0.91857 -1.23341,-2.2857 -1.23341,-4.12307 l 0,-33.12007 -7.60047,30.56408 c -0.49428,1.9832 -0.91279,3.45308 -1.22269,4.39336 -0.30799,0.91321 -0.88129,1.75088 -1.72526,2.51816 -0.84364,0.76196 -1.99713,1.14012 -3.49203,1.14012 -1.11687,0 -2.06773,-0.2544 -2.84213,-0.75651 -0.7793,-0.47554 -1.37804,-1.10233 -1.8,-1.85889 -0.43519,-0.76187 -0.78447,-1.60495 -1.05183,-2.52352 -0.2353,-0.94023 -0.48356,-1.90768 -0.73675,-2.91272"
         style="fill:#8dc8ab;fill-opacity:1;fill-rule:evenodd;stroke:none"
         id="path5469"
         inkscape:connector-curvature="0" />
      <path
         inkscape:export-ydpi="90"
         inkscape:export-xdpi="90"
         inkscape:export-filename="/home/creawww/KGESTION/070/diseños/jornadas para el compromiso/g184.png"
         d="m 297.66623,158.57594 4.36885,0 c 1.09539,0 1.64465,0.1561 1.64465,0.48105 0,0.17799 -0.59767,0.88623 -1.80964,2.12905 -1.19674,1.24836 -2.42535,2.44249 -3.64804,3.5773 -1.2341,1.12941 -2.07774,1.81565 -2.55296,2.05347 -1.23378,0.63751 -2.55819,0.95118 -3.93618,0.95118 -0.93422,0 -1.40427,-0.27537 -1.40427,-0.81615 0,-0.37275 0.28377,-1.01581 0.8436,-1.93451 l 1.45235,-2.73972 c 0.84365,-1.59414 1.57621,-2.61545 2.19536,-3.05311 0.62502,-0.43799 1.58067,-0.64828 2.84628,-0.64828 m 5.30894,31.18551 c -1.29253,0.47559 -3.17798,0.99429 -5.65621,1.53469 -2.46169,0.52386 -4.17101,0.91871 -5.10561,1.17805 -0.95603,0.23298 -1.86327,0.72944 -2.72313,1.46983 -0.8654,0.72949 -1.29258,1.73998 -1.29258,3.0478 0,1.35092 0.50532,2.50195 1.52187,3.47452 1.00934,0.94037 2.33957,1.40506 3.97355,1.40506 1.74114,0 3.35402,-0.38394 4.82785,-1.14027 1.48488,-0.79425 2.5744,-1.79403 3.25785,-3.02063 0.79589,-1.35106 1.19641,-3.5774 1.19641,-6.67916 l 0,-1.26989 z m 0.59115,12.9206 c -2.14172,1.68048 -4.20875,2.94502 -6.21176,3.79882 -1.9916,0.83763 -4.22427,1.24827 -6.697,1.24827 -2.27037,0 -4.25642,-0.44358 -5.98723,-1.34011 -1.7035,-0.91871 -3.02236,-2.14531 -3.94172,-3.70698 -0.93385,-1.54014 -1.38801,-3.23157 -1.38801,-5.04182 0,-2.44258 0.76924,-4.51763 2.29111,-6.24149 1.53264,-1.71831 3.6266,-2.88025 6.31241,-3.46925 0.54408,-0.12953 1.93903,-0.42121 4.16616,-0.88623 2.22126,-0.4543 4.11776,-0.88073 5.69326,-1.24827 1.58622,-0.38906 3.31703,-0.8538 5.17476,-1.40506 -0.10391,-2.35051 -0.57764,-4.07973 -1.42091,-5.1714 -0.82771,-1.11324 -2.53116,-1.6644 -5.13668,-1.6644 -2.25416,0 -3.9365,0.31358 -5.08972,0.95099 -1.11683,0.63224 -2.09429,1.57807 -2.90056,2.84796 -0.8066,1.26439 -1.36658,2.10752 -1.71972,2.5128 -0.3215,0.39978 -1.03594,0.58914 -2.13101,0.58914 -1.00411,0 -1.86327,-0.30799 -2.59588,-0.95104 -0.7101,-0.65363 -1.06254,-1.47523 -1.06254,-2.48037 0,-1.57793 0.55066,-3.10185 1.64502,-4.58244 1.10616,-1.486 2.80961,-2.70198 5.14331,-3.66924 2.3233,-0.9618 5.23355,-1.4374 8.7111,-1.4374 3.8763,0 6.92629,0.47028 9.14825,1.40493 2.21641,0.9187 3.77533,2.38312 4.67842,4.38804 0.92905,2.01028 1.38876,4.66893 1.40465,7.98139 0,2.10207 0,3.88543 -0.069,5.33909 0,1.45892 0,3.08554 -0.069,4.87953 0,1.67531 0.27304,3.43141 0.81731,5.26338 0.54442,1.81569 0.83843,2.97753 0.83843,3.50708 0,0.90794 -0.43007,1.75079 -1.29776,2.51271 -0.83842,0.74575 -1.80554,1.11874 -2.86808,1.11874 -0.91349,0 -1.80517,-0.4324 -2.69718,-1.28075 -0.88096,-0.87547 -1.81589,-2.11833 -2.80341,-3.76652"
         style="fill:#8dc8ab;fill-opacity:1;fill-rule:evenodd;stroke:none"
         id="path5471"
         inkscape:connector-curvature="0" />
      <path
         inkscape:export-ydpi="90"
         inkscape:export-xdpi="90"
         inkscape:export-filename="/home/creawww/KGESTION/070/diseños/jornadas para el compromiso/g184.png"
         d="m 349.02964,196.04353 c 0,2.4587 -0.58421,4.5823 -1.77787,6.344 -1.19156,1.75088 -2.94348,3.08023 -5.2664,3.99894 -2.31259,0.89685 -5.12187,1.33996 -8.45376,1.33996 -3.16243,0 -5.88038,-0.49702 -8.13971,-1.47518 -2.27,-0.97257 -3.94167,-2.19932 -5.02565,-3.66374 -1.06846,-1.47532 -1.61325,-2.96672 -1.61325,-4.44205 0,-0.98338 0.35459,-1.82651 1.03664,-2.52347 0.68829,-0.70796 1.56441,-1.05379 2.62733,-1.05379 0.92421,0 1.62914,0.23764 2.12579,0.68639 0.49465,0.45942 0.983,1.10765 1.42645,1.93983 0.90724,1.59414 1.99159,2.77764 3.23571,3.55568 1.26593,0.78363 3.00158,1.1835 5.1755,1.1835 1.7678,0 3.20911,-0.39978 4.33149,-1.1835 1.13728,-0.7997 1.71971,-1.71827 1.71971,-2.74503 0,-1.57248 -0.60456,-2.71283 -1.77852,-3.43687 -1.16943,-0.71867 -3.0922,-1.40506 -5.78975,-2.05883 -3.04897,-0.76191 -5.52203,-1.5618 -7.43925,-2.38853 -1.90135,-0.85376 -3.42359,-1.97235 -4.56083,-3.34494 -1.14352,-1.37258 -1.71976,-3.05852 -1.71976,-5.06348 0,-1.78868 0.53234,-3.48542 1.58622,-5.07942 1.06222,-1.58883 2.61145,-2.84791 4.66217,-3.79365 2.0722,-0.9618 4.5501,-1.43739 7.47145,-1.43739 2.28043,0 4.32598,0.23297 6.14187,0.71341 1.83769,0.48635 3.34885,1.12931 4.56637,1.93982 1.22301,0.80521 2.15244,1.69144 2.77741,2.68036 0.64473,0.98352 0.97159,1.94002 0.97159,2.87484 0,1.02672 -0.35458,1.86971 -1.04628,2.52362 -0.66547,0.65362 -1.61837,0.97816 -2.87326,0.97816 -0.90277,0 -1.6713,-0.25907 -2.32885,-0.77818 -0.6108,-0.5295 -1.33544,-1.30782 -2.16315,-2.36156 -0.67274,-0.86996 -1.45203,-1.56711 -2.36584,-2.09671 -0.9024,-0.5186 -2.12547,-0.78353 -3.67986,-0.78353 -1.60211,0 -2.92684,0.35179 -3.97872,1.04833 -1.0577,0.67557 -1.58655,1.52933 -1.58655,2.55059 0,0.94573 0.38721,1.71846 1.15942,2.32908 0.77995,0.58914 1.83145,1.07536 3.14579,1.46456 1.30782,0.39419 3.11848,0.87533 5.42105,1.44816 2.75011,0.67548 4.97174,1.47524 6.71326,2.41547 1.74083,0.94023 3.03858,2.05878 3.93618,3.34503 0.91241,1.25908 1.35586,2.71255 1.35586,4.35012"
         style="fill:#8dc8ab;fill-opacity:1;fill-rule:evenodd;stroke:none"
         id="path5473"
         inkscape:connector-curvature="0" />
      <path
         d="m 379.95235,189.49992 c 0,2.39389 0.37369,4.47434 1.12685,6.21442 0.77444,1.72381 1.78928,3.00992 3.03377,3.86376 1.26039,0.83759 2.60105,1.24823 4.04824,1.24823 1.5755,0 3.02818,-0.4105 4.33665,-1.24823 1.31369,-0.85384 2.37139,-2.13995 3.16695,-3.86376 0.8066,-1.71846 1.20712,-3.84751 1.20712,-6.38193 0,-1.78327 -0.23856,-3.39903 -0.72119,-4.84724 -0.44311,-1.43204 -1.08398,-2.6155 -1.87986,-3.56654 -0.79588,-0.95649 -1.709,-1.66436 -2.74493,-2.11833 -1.0311,-0.48631 -2.12579,-0.71868 -3.29005,-0.71868 -2.38173,0 -4.35814,0.98893 -5.92293,2.97209 -1.5755,1.98866 -2.36062,4.80405 -2.36062,8.44621 m 17.29346,25.5223 0,-12.59094 c -1.69861,1.71841 -3.4768,3.03695 -5.33005,3.95561 -1.83732,0.89704 -3.87216,1.34015 -6.1204,1.34015 -2.72937,0 -5.23392,-0.74034 -7.49325,-2.19395 -2.24307,-1.45902 -4.01087,-3.55573 -5.30308,-6.27924 -1.28186,-2.75598 -1.91205,-5.98745 -1.91205,-9.68907 0,-3.79891 0.64091,-7.04124 1.93316,-9.75934 1.30847,-2.7181 3.08182,-4.79319 5.37814,-6.21442 2.30704,-1.41578 4.85483,-2.12369 7.67479,-2.12369 2.36584,0 4.47541,0.50257 6.36082,1.50771 1.87436,0.97266 3.48202,2.48032 4.81192,4.50672 l 0,-1.0699 c 0,-1.64279 0.39,-2.8857 1.16943,-3.73405 0.77445,-0.85385 1.78374,-1.27534 3.01234,-1.27534 1.21748,0 2.23231,0.42168 3.01193,1.27534 0.76928,0.82678 1.16426,2.06964 1.16426,3.73405 l 0,38.61036 c 0,3.96642 -1.3991,5.94962 -4.17619,5.96039 -1.71976,0 -2.86808,-0.53496 -3.40215,-1.60491 -0.5233,-1.06455 -0.77962,-2.5182 -0.77962,-4.35548"
         style="fill:#8dc8ab;fill-opacity:1;fill-rule:evenodd;stroke:none"
         id="path5475"
         inkscape:connector-curvature="0" />
      <path
         d="m 437.37595,202.68257 0,-1.15099 c -1.04144,1.36173 -2.14689,2.49114 -3.31115,3.42061 -1.16976,0.90785 -2.43537,1.58333 -3.82924,2.01564 -1.3725,0.46455 -2.948,0.6971 -4.7158,0.6971 -2.14172,0 -4.04824,-0.45383 -5.76795,-1.34016 -1.66646,-0.89708 -2.96943,-2.13454 -3.89881,-3.70706 -1.09474,-1.88592 -1.65024,-4.62024 -1.65024,-8.17601 l 0,-17.70834 c 0,-1.78863 0.39559,-3.11802 1.19091,-3.99339 0.8066,-0.88628 1.85326,-1.3348 3.17799,-1.3348 1.32436,0 2.40838,0.44871 3.23642,1.3348 0.80105,0.89159 1.21234,2.22634 1.21234,3.99339 l 0,14.29854 c 0,2.0805 0.18685,3.82053 0.52331,5.24171 0.35784,1.39421 0.9612,2.49119 1.85325,3.30715 0.9024,0.77818 2.10953,1.17265 3.64766,1.17265 1.4901,0 2.8892,-0.44312 4.20838,-1.33475 1.31369,-0.89704 2.2645,-2.06428 2.87881,-3.50168 0.4967,-1.26449 0.74225,-4.04209 0.74225,-8.31649 l 0,-10.86713 c 0,-1.76705 0.41143,-3.1018 1.22823,-3.99339 0.82254,-0.88628 1.89063,-1.3348 3.19388,-1.3348 1.31923,0 2.38178,0.44871 3.16694,1.3348 0.8066,0.87537 1.20159,2.20476 1.20159,3.99339 l 0,25.88435 c 0,1.71305 -0.39,2.97749 -1.16426,3.83133 -0.75814,0.8484 -1.73043,1.2807 -2.94278,1.2807 -1.19604,0 -2.21087,-0.44311 -3.01192,-1.31313 -0.76928,-0.89704 -1.16981,-2.1399 -1.16981,-3.73404"
         style="fill:#8dc8ab;fill-opacity:1;fill-rule:evenodd;stroke:none"
         id="path5477"
         inkscape:connector-curvature="0" />
      <path
         inkscape:export-ydpi="90"
         inkscape:export-xdpi="90"
         inkscape:export-filename="/home/creawww/KGESTION/070/diseños/jornadas para el compromiso/g184.png"
         d="m 461.84172,186.68187 16.00125,0 c -0.21433,-3.04775 -1.0207,-5.32828 -2.44607,-6.84125 -1.40497,-1.52919 -3.25855,-2.28584 -5.58116,-2.28584 -2.18426,0 -3.99497,0.76741 -5.42142,2.31286 -1.39873,1.53464 -2.24269,3.80427 -2.5526,6.81423 m 17.27203,5.07425 -17.27203,0 c 0,2.02636 0.40817,3.82039 1.20196,5.36598 0.78479,1.55086 1.83108,2.7235 3.1292,3.50168 1.31919,0.79439 2.7612,1.18337 4.32631,1.18337 1.0577,0 2.02412,-0.13 2.88882,-0.37323 0.87612,-0.24835 1.73598,-0.64282 2.5533,-1.1671 0.82216,-0.55094 1.57587,-1.12945 2.26417,-1.74548 0.68382,-0.59995 1.57551,-1.42114 2.68683,-2.48033 0.44638,-0.38906 1.08953,-0.58923 1.93867,-0.58923 0.91316,0 1.6336,0.25394 2.20537,0.76196 0.54408,0.49181 0.8332,1.19958 0.8332,2.12919 0,0.7943 -0.3215,1.75079 -0.94526,2.84246 -0.61813,1.0644 -1.56446,2.09662 -2.83557,3.11256 -1.25488,0.97807 -2.83141,1.79399 -4.76388,2.4479 -1.89127,0.65368 -4.08038,0.98352 -6.55377,0.98352 -5.68706,0 -10.08843,-1.63743 -13.23455,-4.91205 -3.14514,-3.26936 -4.71477,-7.71137 -4.71477,-13.32057 0,-2.63702 0.38161,-5.08492 1.15871,-7.33297 0.77445,-2.26413 1.91169,-4.20959 3.39107,-5.82526 1.49522,-1.61041 3.31111,-2.84246 5.50091,-3.70167 2.18459,-0.86996 4.59302,-1.30236 7.25283,-1.30236 3.4502,0 6.39819,0.74043 8.85466,2.22638 2.47823,1.45907 4.33666,3.35584 5.56004,5.69564 1.23346,2.33989 1.84776,4.71221 1.84776,7.12762 0,2.24806 -0.63853,3.71793 -1.90688,4.39337 -1.27111,0.65381 -3.0711,0.97806 -5.3671,0.97806"
         style="fill:#8dc8ab;fill-opacity:1;fill-rule:evenodd;stroke:none"
         id="path5479"
         inkscape:connector-curvature="0" />
      <path
         inkscape:export-ydpi="90"
         inkscape:export-xdpi="90"
         inkscape:export-filename="/home/creawww/KGESTION/070/diseños/jornadas para el compromiso/g184.png"
         d="m 533.32032,202.68257 0,-1.15103 c -1.0577,1.36168 -2.17388,2.49113 -3.34331,3.42065 -1.17013,0.90776 -2.43569,1.58333 -3.80785,2.01554 -1.37799,0.46502 -2.95867,0.69715 -4.72092,0.69715 -2.14173,0 -4.05411,-0.45429 -5.75761,-1.34011 -1.69311,-0.89713 -2.98564,-2.13454 -3.91539,-3.70697 -1.10476,-1.88597 -1.66059,-4.62042 -1.66059,-8.1761 l 0,-17.70834 c 0,-1.78867 0.40304,-3.11802 1.20228,-3.99335 0.80073,-0.88637 1.86328,-1.33493 3.18284,-1.33493 1.32403,0 2.40805,0.4487 3.22085,1.33493 0.82216,0.89155 1.23345,2.22634 1.23345,3.99335 l 0,14.2985 c 0,2.08049 0.1766,3.82048 0.51571,5.2418 0.34573,1.39416 0.95636,2.49114 1.84841,3.3071 0.90757,0.77818 2.1147,1.1726 3.65251,1.1726 1.49042,0 2.88397,-0.44358 4.2087,-1.33466 1.3033,-0.89718 2.27005,-2.06442 2.87359,-3.50182 0.48356,-1.26439 0.73675,-4.04203 0.74747,-8.31644 l 0,-10.86708 c 0,-1.76701 0.40351,-3.1018 1.22269,-3.99335 0.82286,-0.88637 1.89682,-1.33493 3.19909,-1.33493 1.31919,0 2.38243,0.4487 3.17799,1.33493 0.79034,0.87533 1.19087,2.20468 1.19087,3.99335 l 0,25.88444 c 0,1.71296 -0.3872,2.97749 -1.16426,3.83124 -0.75297,0.8483 -1.74083,1.28066 -2.94795,1.28066 -1.2068,0 -2.21087,-0.44358 -2.99604,-1.31313 -0.77445,-0.897 -1.16426,-2.13986 -1.16426,-3.734"
         style="fill:#8dc8ab;fill-opacity:1;fill-rule:evenodd;stroke:none"
         id="path5481"
         inkscape:connector-curvature="0" />
      <path
         inkscape:export-ydpi="90"
         inkscape:export-xdpi="90"
         inkscape:export-filename="/home/creawww/KGESTION/070/diseños/jornadas para el compromiso/g184.png"
         d="m 558.40761,176.33894 0,1.08081 c 1.56446,-2.06974 3.24681,-3.58821 5.08418,-4.55011 1.85842,-0.97807 3.97867,-1.46442 6.36599,-1.46442 2.32884,0 4.41139,0.51324 6.24354,1.53464 1.83215,1.02676 3.20459,2.48042 4.10666,4.35012 0.58458,1.08626 0.96675,2.26958 1.13277,3.53416 0.16587,1.26453 0.26279,2.88024 0.26978,4.84724 l 0,16.62212 c 0,1.79413 -0.40864,3.14504 -1.239,4.06375 -0.79584,0.91871 -1.84286,1.37254 -3.14062,1.37254 -1.31401,0 -2.37138,-0.46502 -3.19355,-1.40502 -0.81694,-0.94028 -1.22786,-2.28038 -1.22786,-4.03127 l 0,-14.8929 c 0,-2.9452 -0.40863,-5.1823 -1.2348,-6.73871 -0.79001,-1.56711 -2.39734,-2.3561 -4.8109,-2.3561 -1.57653,0 -3.01267,0.47573 -4.30488,1.43754 -1.29812,0.93483 -2.23822,2.2426 -2.85182,3.90155 -0.41935,1.32935 -0.64506,3.82048 -0.64506,7.45733 l 0,11.19129 c 0,1.8157 -0.41376,3.17752 -1.25488,4.09609 -0.81248,0.89708 -1.88574,1.3402 -3.2046,1.3402 -1.27115,0 -2.31328,-0.46502 -3.14099,-1.40502 -0.82216,-0.94028 -1.22269,-2.28038 -1.22269,-4.03127 l 0,-25.82494 c 0,-1.69674 0.36018,-2.96127 1.09474,-3.79345 0.74226,-0.8483 1.74152,-1.26989 3.01784,-1.26989 0.76924,0 1.47379,0.18358 2.09881,0.55154 0.61081,0.36763 1.11618,0.92402 1.48973,1.66976 0.38161,0.74584 0.57139,1.6427 0.57139,2.7127"
         style="fill:#8dc8ab;fill-opacity:1;fill-rule:evenodd;stroke:none"
         id="path5483"
         inkscape:connector-curvature="0" />
      <path
         inkscape:export-ydpi="90"
         inkscape:export-xdpi="90"
         inkscape:export-filename="/home/creawww/KGESTION/070/diseños/jornadas para el compromiso/g184.png"
         d="m 614.32838,186.68187 16.01648,0 c -0.22132,-3.04775 -1.03626,-5.32828 -2.46164,-6.84125 -1.40464,-1.52919 -3.25855,-2.28584 -5.56526,-2.28584 -2.20015,0 -4.01087,0.76741 -5.43144,2.31286 -1.4046,1.53464 -2.24857,3.80427 -2.55814,6.81423 m 17.2717,5.07425 -17.2717,0 c 0,2.02636 0.42494,3.82039 1.20712,5.36598 0.78484,1.55086 1.84184,2.7235 3.12921,3.50168 1.31401,0.79439 2.76119,1.18337 4.33153,1.18337 1.06324,0 2.01927,-0.13 2.88882,-0.37323 0.88129,-0.24835 1.73043,-0.64282 2.55296,-1.1671 0.8073,-0.55094 1.58171,-1.12945 2.25933,-1.74548 0.6897,-0.59995 1.58585,-1.42114 2.68129,-2.48033 0.45709,-0.38906 1.10541,-0.58923 1.94383,-0.58923 0.90245,0 1.63399,0.25394 2.20053,0.76196 0.55755,0.49181 0.83288,1.19958 0.83288,2.12919 0,0.7943 -0.301,1.75079 -0.92938,2.84246 -0.63779,1.0644 -1.58035,2.09662 -2.84628,3.11256 -1.25521,0.97807 -2.83589,1.79399 -4.75899,2.4479 -1.90101,0.65368 -4.09045,0.98352 -6.55763,0.98352 -5.6777,0 -10.08909,-1.63743 -13.22938,-4.91205 -3.15097,-3.26936 -4.72614,-7.71137 -4.72614,-13.32043 0,-2.63716 0.3872,-5.08506 1.15871,-7.33311 0.77962,-2.26413 1.9231,-4.20959 3.40211,-5.82526 1.48488,-1.61027 3.31632,-2.84246 5.49504,-3.70167 2.17942,-0.86996 4.59302,-1.30222 7.25288,-1.30222 3.4398,0 6.39847,0.74029 8.85493,2.22638 2.48415,1.45893 4.33116,3.3557 5.55455,5.6955 1.23345,2.33989 1.84771,4.71221 1.84771,7.12776 0,2.24792 -0.63154,3.71779 -1.90684,4.39323 -1.2656,0.65381 -3.05968,0.97806 -5.36709,0.97806"
         style="fill:#8dc8ab;fill-opacity:1;fill-rule:evenodd;stroke:none"
         id="path5485"
         inkscape:connector-curvature="0" />
      <path
         inkscape:export-ydpi="90"
         inkscape:export-xdpi="90"
         inkscape:export-filename="/home/creawww/KGESTION/070/diseños/jornadas para el compromiso/g184.png"
         d="m 675.68885,190.21757 0,11.87226 c 0,1.88052 -0.42494,3.29639 -1.2711,4.23117 -0.83842,0.94023 -1.9553,1.40492 -3.32742,1.40492 -1.34029,0 -2.42497,-0.46455 -3.27411,-1.40492 -0.8059,-0.93478 -1.22306,-2.35065 -1.22306,-4.23117 l 0,-14.22837 c 0,-2.25876 -0.0797,-3.98798 -0.22133,-5.24166 -0.15562,-1.23751 -0.56449,-2.25346 -1.23447,-3.0424 -0.67828,-0.79975 -1.72526,-1.20493 -3.16653,-1.20493 -2.89474,0 -4.80158,1.00504 -5.72545,3.00982 -0.91899,2.00478 -1.3669,4.89048 -1.3669,8.63543 l 0,12.07211 c 0,1.85885 -0.41376,3.26391 -1.25592,4.23117 -0.82216,0.94023 -1.90096,1.40492 -3.27346,1.40492 -1.31956,0 -2.42981,-0.46455 -3.28967,-1.40492 -0.84914,-0.96726 -1.26043,-2.37232 -1.26043,-4.23117 l 0,-25.54932 c 0,-1.68063 0.37648,-2.95592 1.13174,-3.83675 0.77445,-0.87001 1.78406,-1.297 3.03927,-1.297 1.2068,0 2.21124,0.40537 3.00643,1.23224 0.80697,0.80501 1.22338,1.92906 1.22338,3.37191 l 0,0.84844 c 1.53227,-1.84272 3.17799,-3.20999 4.91919,-4.09077 1.75084,-0.86452 3.70096,-1.30232 5.82638,-1.30232 2.22195,0 4.12814,0.4487 5.71953,1.34025 1.59177,0.89154 2.91133,2.24791 3.95244,4.05284 1.47933,-1.82651 3.08149,-3.18283 4.78532,-4.05284 1.69828,-0.89169 3.58853,-1.34025 5.6666,-1.34025 2.40839,0 4.49163,0.48104 6.2325,1.44285 1.75187,0.96194 3.06071,2.33439 3.9147,4.11775 0.75264,1.61026 1.12689,4.15554 1.12689,7.63024 l 0,17.43273 c 0,1.88052 -0.42495,3.29639 -1.25489,4.23117 -0.84392,0.94023 -1.94938,1.40492 -3.32737,1.40492 -1.34034,0 -2.4513,-0.46455 -3.30598,-1.40492 -0.83805,-0.96726 -1.26561,-2.37232 -1.26561,-4.23117 l 0,-15.00654 c 0,-1.92371 -0.0797,-3.46375 -0.26279,-4.61478 -0.13839,-1.16724 -0.56445,-2.13464 -1.28736,-2.92344 -0.71528,-0.78368 -1.78891,-1.1726 -3.23572,-1.1726 -1.16426,0 -2.27042,0.3462 -3.32742,1.04828 -1.04148,0.6917 -1.85292,1.63193 -2.42501,2.80453 -0.63779,1.51312 -0.96605,4.18257 -0.96605,7.99229"
         style="fill:#8dc8ab;fill-opacity:1;fill-rule:evenodd;stroke:none"
         id="path5487"
         inkscape:connector-curvature="0" />
      <path
         inkscape:export-ydpi="90"
         inkscape:export-xdpi="90"
         inkscape:export-filename="/home/creawww/KGESTION/070/diseños/jornadas para el compromiso/g184.png"
         d="m 730.38419,189.39461 c 0,-2.3561 -0.35458,-4.37178 -1.07363,-6.047 -0.72082,-1.7022 -1.709,-2.99906 -2.98015,-3.90151 -1.24966,-0.91325 -2.6325,-1.36713 -4.17655,-1.36713 -2.43499,0 -4.49615,0.96726 -6.16261,2.90177 -1.67163,1.95623 -2.49933,4.80414 -2.49933,8.58138 0,3.55573 0.8277,6.33333 2.49933,8.31645 1.64503,1.96703 3.70614,2.94506 6.16261,2.94506 1.46931,0 2.8207,-0.42122 4.0863,-1.27535 1.24412,-0.87532 2.24824,-2.17214 2.99604,-3.89605 0.75851,-1.72922 1.13206,-3.80972 1.14799,-6.25762 m -17.30874,-12.98005 0,1.07 c 1.64987,-2.06428 3.38585,-3.58816 5.16926,-4.5447 1.78891,-0.98347 3.8078,-1.46983 6.08302,-1.46983 2.72388,0 5.21837,0.70246 7.4981,2.11829 2.29148,1.42663 4.08071,3.50168 5.41099,6.21982 1.32958,2.7235 1.99714,5.95503 1.99714,9.69453 0,2.73972 -0.38208,5.27409 -1.16426,7.58695 -0.74742,2.29116 -1.79441,4.22036 -3.1354,5.79293 -1.32958,1.54 -2.92102,2.74508 -4.75834,3.59897 -1.81034,0.83204 -3.74937,1.24818 -5.84823,1.24818 -2.52044,0 -4.6459,-0.5186 -6.37116,-1.54545 -1.709,-1.02131 -3.33259,-2.52898 -4.88112,-4.51763 l 0,13.41771 c 0,3.92322 -1.4209,5.90098 -4.24155,5.90098 -1.65542,0 -2.76605,-0.52931 -3.30529,-1.54009 -0.53197,-1.0051 -0.80142,-2.48037 -0.80142,-4.4257 l 0,-38.55096 c 0,-1.69674 0.37135,-2.96127 1.10098,-3.79345 0.72045,-0.84844 1.73458,-1.26989 3.00573,-1.26989 1.24515,0 2.25965,0.42681 3.04482,1.29687 0.79518,0.85925 1.19673,2.09676 1.19673,3.71247"
         style="fill:#8dc8ab;fill-opacity:1;fill-rule:evenodd;stroke:none"
         id="path5489"
         inkscape:connector-curvature="0" />
      <path
         inkscape:export-ydpi="90"
         inkscape:export-xdpi="90"
         inkscape:export-filename="/home/creawww/KGESTION/070/diseños/jornadas para el compromiso/g184.png"
         d="m 746.31732,202.29192 0,-38.74549 c 0,-1.78868 0.39792,-3.1396 1.16944,-4.0583 0.79658,-0.91321 1.85358,-1.37804 3.19424,-1.37804 1.34547,0 2.41873,0.46502 3.24159,1.37804 0.81182,0.89704 1.21752,2.2426 1.21752,4.0583 l 0,38.74549 c 0,1.81574 -0.42494,3.17738 -1.24967,4.09608 -0.82771,0.897 -1.89025,1.34011 -3.20944,1.34011 -1.29258,0 -2.35028,-0.46501 -3.16727,-1.40492 -0.79588,-0.94037 -1.19641,-2.28039 -1.19641,-4.03127"
         style="fill:#8dc8ab;fill-opacity:1;fill-rule:evenodd;stroke:none"
         id="path5491"
         inkscape:connector-curvature="0" />
      <path
         inkscape:export-ydpi="90"
         inkscape:export-xdpi="90"
         inkscape:export-filename="/home/creawww/KGESTION/070/diseños/jornadas para el compromiso/g184.png"
         d="m 771.63913,186.68187 16.01616,0 c -0.23158,-3.04775 -1.03557,-5.32828 -2.45614,-6.84125 -1.40427,-1.52919 -3.2634,-2.28584 -5.56527,-2.28584 -2.20499,0 -4.01571,0.76741 -5.43661,2.31286 -1.39942,1.53464 -2.25965,3.80427 -2.55814,6.81423 m 17.27207,5.07425 -17.27207,0 c 0,2.02636 0.43007,3.82039 1.20158,5.36598 0.79519,1.55086 1.83145,2.7235 3.13475,3.50168 1.31402,0.79439 2.76087,1.18337 4.34225,1.18337 1.05215,0 2.00818,-0.13 2.86771,-0.37323 0.89205,-0.24835 1.7412,-0.64282 2.5689,-1.1671 0.8066,-0.55094 1.56512,-1.12945 2.24857,-1.74548 0.69454,-0.59995 1.58067,-1.42114 2.68613,-2.48033 0.44079,-0.38906 1.10616,-0.58923 1.94458,-0.58923 0.9024,0 1.62839,0.25394 2.2057,0.76196 0.55722,0.49181 0.8277,1.19958 0.8277,2.12919 0,0.7943 -0.301,1.75079 -0.92942,2.84246 -0.63848,1.0644 -1.57513,2.09662 -2.84628,3.11256 -1.25586,0.97807 -2.83659,1.79399 -4.76901,2.4479 -1.8806,0.65368 -4.07558,0.98352 -6.54831,0.98352 -5.67211,0 -10.08839,-1.63743 -13.22934,-4.91205 -3.15031,-3.26936 -4.72618,-7.71137 -4.72618,-13.32057 0,-2.63702 0.3872,-5.08492 1.15941,-7.33297 0.77962,-2.26413 1.91173,-4.20959 3.40178,-5.82526 1.47933,-1.61041 3.3222,-2.84246 5.49542,-3.70167 2.17942,-0.86996 4.59297,-1.30236 7.25283,-1.30236 3.4398,0 6.39814,0.74043 8.85498,2.22638 2.48345,1.45907 4.33116,3.35584 5.56526,5.69564 1.22269,2.33989 1.85256,4.71221 1.85256,7.12762 0,2.24806 -0.6513,3.71793 -1.92245,4.39337 -1.2711,0.65381 -3.06038,0.97806 -5.36705,0.97806"
         style="fill:#8dc8ab;fill-opacity:1;fill-rule:evenodd;stroke:none"
         id="path5493"
         inkscape:connector-curvature="0" />
      <path
         inkscape:export-ydpi="90"
         inkscape:export-xdpi="90"
         inkscape:export-filename="/home/creawww/KGESTION/070/diseños/jornadas para el compromiso/g184.png"
         d="m 827.81548,189.56315 c 0,-3.64217 -0.78511,-6.47917 -2.39244,-8.51098 -1.57518,-2.03194 -3.69542,-3.04244 -6.37671,-3.04244 -1.71939,0 -3.23609,0.45942 -4.55011,1.37258 -1.31886,0.897 -2.33402,2.23179 -3.03862,3.99349 -0.71663,1.76701 -1.07396,3.83124 -1.07396,6.18735 0,2.33453 0.35505,4.38246 1.04181,6.12258 0.69906,1.73998 1.71422,3.08014 2.99603,4.02051 1.31887,0.91857 2.87326,1.38335 4.62485,1.38335 2.68129,0 4.80153,-1.02676 6.37671,-3.05321 1.60733,-2.04807 2.39244,-4.8635 2.39244,-8.47323 m 8.8664,0 c 0,2.65873 -0.40304,5.11753 -1.22926,7.36544 -0.81699,2.24801 -2.00231,4.18257 -3.55083,5.79829 -1.55477,1.61035 -3.40733,2.84791 -5.57048,3.72319 -2.15794,0.84299 -4.57709,1.27534 -7.28498,1.27534 -2.67057,0 -5.07346,-0.44358 -7.19925,-1.30768 -2.14172,-0.87542 -3.98458,-2.11828 -5.56526,-3.734 -1.5537,-1.63738 -2.74526,-3.55582 -3.55671,-5.75514 -0.8011,-2.22638 -1.19641,-4.68504 -1.19641,-7.36544 0,-2.70189 0.40864,-5.17135 1.22339,-7.43022 0.82216,-2.248 2.00301,-4.16635 3.52973,-5.76049 1.52742,-1.58878 3.39139,-2.81008 5.56526,-3.66919 2.17942,-0.87011 4.57709,-1.29701 7.19925,-1.29701 2.68129,0 5.10556,0.42728 7.28498,1.29701 2.17871,0.88078 4.0479,2.11829 5.59676,3.73405 1.55994,1.61567 2.72937,3.53942 3.52455,5.77121 0.82357,2.22652 1.22926,4.67442 1.22926,7.35464"
         style="fill:#8dc8ab;fill-opacity:1;fill-rule:evenodd;stroke:none"
         id="path5495"
         inkscape:connector-curvature="0" />
    </g>
    <rect
       style="color:#000000;clip-rule:nonzero;display:inline;overflow:visible;visibility:visible;opacity:1;isolation:auto;mix-blend-mode:normal;color-interpolation:sRGB;color-interpolation-filters:linearRGB;solid-color:#000000;solid-opacity:1;fill:#808000;fill-opacity:1;fill-rule:nonzero;stroke:none;stroke-width:1.81400001;stroke-linecap:round;stroke-linejoin:round;stroke-miterlimit:4;stroke-dasharray:none;stroke-dashoffset:0;stroke-opacity:1;marker:none;color-rendering:auto;image-rendering:auto;shape-rendering:auto;text-rendering:auto;enable-background:accumulate"
       id="rect9232"
       width="108.76399"
       height="37.46191"
       x="674.70374"
       y="278.7641" />
    <text
       sodipodi:linespacing="125%"
       id="text9234"
       y="307.81021"
       x="693.67285"
       style="color:#000000;font-style:normal;font-variant:normal;font-weight:normal;font-stretch:normal;font-size:25.44360542px;line-height:125%;font-family:'Titillium Web';-inkscape-font-specification:'Titillium Web';text-indent:0;text-align:start;text-decoration:none;text-decoration-line:none;text-decoration-style:solid;text-decoration-color:#000000;letter-spacing:normal;word-spacing:normal;text-transform:none;direction:ltr;block-progression:tb;writing-mode:lr-tb;baseline-shift:baseline;text-anchor:start;white-space:normal;clip-rule:nonzero;display:inline;overflow:visible;visibility:visible;opacity:0.844;isolation:auto;mix-blend-mode:normal;color-interpolation:sRGB;color-interpolation-filters:linearRGB;solid-color:#000000;solid-opacity:1;fill:#ffffff;fill-opacity:1;fill-rule:nonzero;stroke:none;stroke-width:1.81400001;stroke-linecap:round;stroke-linejoin:round;stroke-miterlimit:4;stroke-dasharray:none;stroke-dashoffset:0;stroke-opacity:1;marker:none;color-rendering:auto;image-rendering:auto;shape-rendering:auto;text-rendering:auto;enable-background:accumulate"
       xml:space="preserve"><tspan
         y="307.81021"
         x="693.67285"
         id="tspan9236"
         sodipodi:role="line"> 2016</tspan></text>
  </g>
</svg>
